<?xml version="1.0" encoding="utf-8"?>
<!-- Generator: Adobe Illustrator 16.0.0, SVG Export Plug-In . SVG Version: 6.00 Build 0)  -->
<!DOCTYPE svg PUBLIC "-//W3C//DTD SVG 1.1//EN" "http://www.w3.org/Graphics/SVG/1.1/DTD/svg11.dtd">
<svg version="1.1" id="图层_1" xmlns="http://www.w3.org/2000/svg" xmlns:xlink="http://www.w3.org/1999/xlink" x="0px" y="0px"
	 width="1023.957px" height="1024.001px" viewBox="0 0 1023.957 1024.001" enable-background="new 0 0 1023.957 1024.001"
	 xml:space="preserve">
<g>
	<path fill="#B72F22" d="M171.524,262.434c-0.964-2.094-0.964-4.189,0-6.309c8.609-6.309,17.217-14.195,25.826-23.658
		c5.739-6.309,12.42-9.463,20.087-9.463c5.739,0,12.419,3.154,20.086,9.463c6.681,8.428,16.724,12.1,30.13,11.041h17.217
		c-0.964,0-1.435-1.035-1.435-3.154c-1.928-16.807-16.746-28.907-44.478-36.276c-2.869-1.035-4.304-2.094-4.304-3.154
		c0.941-2.095,2.87-2.612,5.739-1.577c8.608,1.06,16.724-0.518,24.391-4.731c18.159-9.463,31.565-7.886,40.173,4.731
		c6.681,7.369,7.645,15.255,2.87,23.658c-2.87,6.309-8.138,12.618-15.783,18.926c-0.964,1.06-1.928,1.577-2.869,1.577h30.13v-53.625
		c0-4.189,0.941-6.31,2.869-6.31c1.906-1.035,4.305,0,7.174,3.155c12.42,9.463,23.898,8.946,34.435-1.577
		c2.869-3.154,5.246-4.732,7.173-4.732c1.906,0,2.87,2.12,2.87,6.309v53.625c13.384-11.558,22.956-22.081,28.695-31.544
		c3.811-6.309,6.21-13.652,7.174-22.081c0.941-5.249,4.304-5.249,10.043,0c7.645,8.428,21.521,11.041,41.608,7.886
		c2.869-1.035,5.246-0.518,7.174,1.577c0.941,1.06,0,2.637-2.87,4.732c-17.217,14.737-43.536,28.932-78.912,42.584h40.173
		c11.478,0,19.594-3.672,24.391-11.041c6.681-7.344,13.383-11.041,20.086-11.041c5.739-1.035,12.913,2.12,21.521,9.463
		c8.608,9.463,15.782,16.832,21.521,22.081c2.869,2.119,3.34,4.214,1.435,6.309c-2.87,3.154-5.268,3.696-7.174,1.577
		c-0.964-1.035-3.363-3.154-7.174-6.309c1.906,1.06,0.942,0.542-2.869-1.577v34.698c-0.964,5.274-4.305,7.886-10.043,7.886h-28.695
		c-3.833,0-7.174-1.035-10.043-3.154h-1.435c-2.87-2.095-5.268-3.672-7.174-4.732v31.544c-0.964,6.309-4.797,9.463-11.478,9.463
		h-27.26c-6.703-1.035-11.007-3.154-12.913-6.309h-30.13l2.87,1.577c21.992,10.523,42.079,16.314,60.26,17.349
		c21.992,1.06,41.608-2.612,58.825-11.04c3.811-1.036,6.21-1.036,7.174,0c0.941,1.06,0,3.154-2.87,6.309
		c-16.275,11.583-34.927,17.892-55.956,18.927c-18.181-1.035-36.833-3.155-55.956-6.31v25.235h58.825
		c5.739,1.06,12.913-4.731,21.521-17.349c2.869-2.094,4.775-2.094,5.739,0c1.906,1.06,4.775,3.155,8.609,6.309
		c4.775,2.119,12.913,6.851,24.391,14.195l2.87,1.578c0,1.06-0.964,2.119-2.87,3.154h-2.87c-2.87,1.06-5.268,1.578-7.174,1.578
		H373.825v22.081h84.651c7.645,1.06,15.289-4.731,22.956-17.349c2.87-3.155,5.246-3.155,7.174,0
		c1.905,1.06,5.246,3.154,10.043,6.309c8.608,5.274,15.782,9.463,21.521,12.618c2.87,2.12,3.34,3.696,1.435,4.732
		c-2.87,2.119-6.703,3.154-11.478,3.154H373.825v9.464c4.775,3.154,8.115,7.886,10.043,14.194
		c0.941,9.463-1.435,16.832-7.174,22.081c-13.406,9.463-29.188,11.041-47.347,4.732c-5.739-3.155-13.406-7.886-22.956-14.195
		c-14.348-9.463-25.354-15.772-33-18.926c-4.797-1.035-7.173-2.612-7.173-4.732c0.941-1.035,3.811-1.035,8.608,0
		c8.608,2.12,20.086,7.369,34.434,15.772c9.55,5.273,17.217,8.945,22.956,11.041c19.123,5.273,30.601,3.154,34.434-6.309
		c1.906-6.309,1.435-11.04-1.435-14.195h-2.87h-33c-7.667,0-11.478-3.154-11.478-9.463v-9.464H205.958
		c-13.406,0-23.92-4.731-31.564-14.194c-0.964-2.095-0.964-3.672,0-4.731c0.941,0,2.376,0.542,4.304,1.577
		c6.681,5.274,17.217,7.886,31.565,7.886H317.87v-22.081h-90.39c-14.348,0-23.449-4.189-27.26-12.618
		c-1.928-4.189-0.964-5.25,2.87-3.155c7.645,4.214,16.724,6.309,27.26,6.309h87.52v-23.658
		c-40.173,10.523-78.912,11.04-116.215,1.577c-3.833-1.035-5.739-2.094-5.739-3.155c0.941-1.035,3.34-1.577,7.174-1.577
		c51.651,3.154,93.73-5.249,126.258-25.235h-28.695c0,5.274-3.363,7.886-10.043,7.886h-28.695c-6.703,0-10.536-2.612-11.478-7.886
		v-33.121c-0.964,0-2.398,1.06-4.304,3.154c-1.928,1.06-3.363,2.119-4.304,3.154c-2.87,1.06-5.268,1.06-7.174,0
		c-0.964-1.035-1.435-2.095-1.435-3.154h-1.435h-28.695c-7.667,0-11.971-2.612-12.913-7.886v-31.544
		c-1.928,2.119-5.268,5.273-10.043,9.463c-0.964,1.06-1.928,1.578-2.87,1.578C174.394,266.13,172.466,265.588,171.524,262.434z
		 M267.653,252.971c-9.573,0-17.71-1.035-24.391-3.155v31.544c4.775-5.249,9.08-9.463,12.913-12.618
		c4.775-6.309,10.514-9.463,17.217-9.463c4.775,0,10.043,2.119,15.783,6.309c8.608,8.428,17.217,12.618,25.826,12.618h54.521
		c11.478,0,21.028-3.672,28.695-11.041c4.775-6.309,10.043-8.921,15.782-7.885c6.681,0,12.913,3.154,18.652,9.463
		c1.905,1.06,4.304,2.637,7.174,4.731c3.811,3.155,6.21,5.274,7.174,6.309v-29.967c-4.797,2.12-11.478,3.155-20.087,3.155H267.653z
		 M313.565,287.669c-3.833,0-8.138-1.035-12.913-3.154v28.39h88.955v-29.967c-4.797,3.154-11.478,4.731-20.086,4.731H313.565z"/>
</g>
<g>
	<path fill="#B72F22" d="M552.682,368.982v88.492c0.854,31.232-7.808,49.452-26.027,54.657c-2.603,0.875-3.904,0.875-3.904,0
		c0-1.728,1.301-3.029,3.904-3.904c12.139-8.662,17.771-25.58,16.918-50.753v-88.492c0-6.934,1.301-9.963,3.904-9.109
		C550.933,359.873,552.682,362.923,552.682,368.982z M615.146,285.695v52.055c2.604-0.854,6.508-4.331,11.713-10.411
		c0.854-0.854,1.729-1.728,2.603-2.603c0.854-2.603,2.603-2.603,5.206,0c6.934,3.477,14.741,8.683,23.424,15.616
		c2.604,0.875,2.604,1.749,0,2.603c-1.749,1.749-4.778,2.603-9.109,2.603h-33.836v160.066c0,6.955-2.602,10.411-7.808,10.411
		h-29.931c-6.955,0-10.411-3.457-10.411-10.411V345.558h-14.315c-11.285,0.875-19.094-3.03-23.424-11.712
		c-1.749-3.456-1.301-4.331,1.301-2.603c6.934,4.352,15.168,6.507,24.726,6.507h11.712v-48.15c0-3.456,0.427-5.632,1.302-6.507
		c1.729-0.854,3.904,0,6.506,2.603c10.411,6.955,20.822,6.08,31.232-2.603c2.604-3.456,4.758-5.205,6.508-5.205
		C614.273,278.761,615.146,281.364,615.146,285.695z M638.572,366.379v67.67c0,9.557,1.301,14.762,3.903,15.616
		c1.728,1.749,6.934,0.875,15.616-2.603c1.729-1.728,3.029-2.155,3.904-1.301c0,0.875-0.447,2.603-1.301,5.206
		c-8.684,12.16-12.588,26.902-11.713,44.246c-0.875,10.411-4.779,15.616-11.713,15.616c-6.079,1.749-8.682-4.331-7.808-18.219
		V366.379c0-5.206,1.302-7.809,3.904-7.809C636.822,358.571,638.572,361.174,638.572,366.379z M832.474,310.421H727.064
		c-5.206,0-10.412-0.427-15.617-1.301v54.657h53.355c9.537,0.875,16.918-1.728,22.123-7.808
		c5.205-6.934,11.266-10.411,18.219-10.411c5.206-1.729,11.713,1.749,19.521,10.411c3.455,3.478,7.808,7.381,13.014,11.712
		c3.455,1.749,3.903,3.477,1.301,5.206c-0.875,2.603-2.604,3.05-5.205,1.301c0-0.854-0.875-1.728-2.604-2.603
		c-0.874-0.854-1.748-1.301-2.603-1.301v72.876c0.854,4.352-2.603,6.507-10.411,6.507h-26.027c-6.953,0-10.41-2.155-10.41-6.507
		v-9.109h-70.273v62.465h78.082c6.059,0,13.439-6.507,22.123-19.52c2.602-1.729,4.758-1.729,6.506,0
		c2.604,1.749,7.361,5.205,14.315,10.411c9.536,6.08,16.043,9.984,19.521,11.712c1.729,0.875,1.729,2.176,0,3.904
		c-3.478,1.749-7.381,2.603-11.713,2.603H711.447v1.302c0,6.08-3.477,9.109-10.41,9.109H675.01
		c-8.684,0.854-12.587-2.155-11.713-9.109V311.722c-0.874,0-2.176,0.875-3.904,2.603c-1.748,0.875-3.05,1.749-3.903,2.603
		c-1.749,0.875-3.478,0.875-5.206,0c-2.602-2.603-2.602-4.758,0-6.507c4.332-3.457,9.537-8.662,15.617-15.616
		c5.205-7.808,11.264-11.712,18.219-11.712c6.059,0,12.566,3.478,19.52,10.411c7.809,6.08,16.044,9.109,24.727,9.109h57.26
		c9.536,0.875,18.219-4.758,26.027-16.918c1.728-2.603,4.33-2.603,7.808,0c2.603,2.603,8.661,6.955,18.22,13.014
		c4.33,2.603,7.359,4.352,9.109,5.206l2.602,1.301c0,0.875-0.874,1.749-2.602,2.603C842.437,309.567,837.68,310.421,832.474,310.421
		z M764.803,371.584h-53.355v54.657h70.273v-57.26C776.516,370.731,770.862,371.584,764.803,371.584z"/>
</g>
<g>
	<path fill="#B72F22" d="M353.462,537.441v36.291h15.553c9.208,1.161,17.281-4.59,24.193-17.281c2.295-3.457,5.185-3.457,8.64,0
		c9.208,5.779,19.009,12.691,29.378,20.737c38.019-33.401,88.7-46.659,152.073-39.747c21.871,2.323,33.968,11.531,36.291,27.65
		c1.133,17.281-12.098,28.811-39.747,34.563c34.563,4.617,51.844,20.736,51.844,48.387c-2.323,27.65-20.737,43.203-55.3,46.658
		c-36.885,0-57.028-8.045-60.483-24.193c-3.457-20.736,8.64-33.4,36.29-38.018c3.457-1.134,5.751-0.566,6.913,1.729
		c1.133,2.322,0,3.456-3.457,3.456c-12.691,3.456-20.737,8.64-24.193,15.552c-3.457,5.779-1.162,9.803,6.913,12.098
		c20.737,2.322,32.833-4.023,36.291-19.01c2.294-16.119-4.052-25.922-19.01-29.377c-12.691-4.59-27.65-6.912-44.931-6.912v82.949
		c0,9.234-4.051,13.824-12.097,13.824h-39.747h-1.728v17.281h46.659c9.208,0,18.415-4.59,27.65-13.824
		c6.913-5.752,14.392-8.642,22.465-8.642c8.045-1.134,15.553,1.728,22.465,8.642c3.456,4.617,12.097,12.096,25.922,22.465
		c1.133,1.161,2.295,2.322,3.456,3.455c2.295,3.457,2.295,5.779,0,6.913c-2.323,2.323-5.185,2.89-8.641,1.729
		c-2.322-2.295-5.778-4.59-10.368-6.912v39.746c0,1.161,0,2.89,0,5.185c2.295,1.161,4.022,4.051,5.184,8.641l1.729,1.729
		c1.134,9.234-1.729,17.28-8.641,24.193c-12.691,9.234-29.973,10.963-51.844,5.184c-10.368-3.456-24.193-10.368-41.474-20.737
		c-12.691-8.046-22.465-13.824-29.378-17.28c-3.457-2.295-5.184-4.023-5.184-5.185c1.133-1.134,4.022-1.134,8.64,0
		c9.207,3.456,20.737,8.641,34.563,15.553c13.824,6.912,24.76,11.53,32.833,13.825c20.738,4.617,33.969,2.322,39.747-6.913
		c2.294-4.59,2.862-8.64,1.729-12.097h-41.476c-8.073,0-12.691-4.023-13.825-12.097v-44.931c-4.617,1.161-9.802,1.729-15.553,1.729
		h-46.659v96.773c1.133,9.235-2.89,13.23-12.097,12.098h-44.931c-8.074,1.133-12.098-2.862-12.098-12.098v-96.773h-44.93
		c-5.778,0-10.369-0.567-13.825-1.729v79.493c0,6.912-4.051,10.368-12.096,10.368h-41.476c-10.369,0-15.553-3.456-15.553-10.368
		v-72.581c-1.161,0-2.889,1.162-5.184,3.456c-2.322,1.161-4.051,2.323-5.184,3.456c-4.618,2.323-8.074,2.323-10.369,0
		c-1.161-2.295-0.594-4.59,1.728-6.912c10.369-8.047,20.143-17.281,29.378-27.65c1.134,0,1.728-0.566,1.728-1.727
		c-17.281,6.912-38.613,12.69-63.94,17.28c-4.618,1.161-6.912,1.161-6.912,0c0-2.295,1.729-4.022,5.185-5.185
		c38.018-18.415,61.05-36.29,69.124-53.571h-43.203c-16.147-1.134-26.516-6.912-31.105-17.28c-2.322-4.59-1.728-5.186,1.729-1.729
		c8.046,5.778,19.009,8.641,32.833,8.641h43.203c3.457-10.369,6.318-21.305,8.641-32.834h-41.475
		c-13.825,0-24.193-5.186-31.106-15.553c-2.322-4.591-1.161-5.752,3.457-3.457c6.913,5.779,17.281,8.641,31.106,8.641h38.018
		c0-4.59,0-9.207,0-13.825v-17.28h-44.931c-14.986,0-25.922-5.185-32.833-15.554c-1.162-5.751,0-6.913,3.456-3.456
		c9.208,5.779,19.576,8.641,31.106,8.641h43.203V539.17c0-4.59,1.134-6.912,3.457-6.912c1.133-1.134,4.022,0,8.641,3.456
		c14.958,9.235,28.216,8.073,39.746-3.456c3.457-3.457,6.913-5.184,10.369-5.184C352.301,528.234,353.462,531.69,353.462,537.441z
		 M439.868,667.051c-1.161,0-2.89,0-5.185,0c-2.322,1.161-4.617,1.728-6.913,1.728h-91.59
		c-10.368,12.691-24.194,23.627-41.475,32.834c5.751,0,11.502,2.322,17.281,6.912c10.369,10.369,20.738,15.554,31.106,15.554h44.93
		v-25.922c0-3.457,1.134-5.751,3.457-6.912c1.133,0,3.456,1.729,6.913,5.184c14.958,9.236,30.511,7.507,46.659-5.184l1.728-1.729
		V577.188c-4.617,1.161-8.073,2.89-10.369,5.185c-8.074,5.779-11.53,6.346-10.369,1.729h-5.185h-67.396v17.28
		c0,4.618,0,9.235,0,13.825h12.097c8.046,1.162,16.119-4.59,24.193-17.281c1.133-3.456,4.023-3.456,8.641,0
		c3.456,3.456,10.368,8.074,20.737,13.824c4.59,3.457,8.046,5.779,10.369,6.913l3.457,3.456l-3.457,1.729c-1.161,0-2.889,0-5.184,0
		c-2.323,1.161-4.618,1.729-6.913,1.729h-65.668c-2.322,11.529-5.185,22.465-8.641,32.834h25.922
		c10.368,1.161,20.143-4.59,29.378-17.281c1.133-3.456,3.456-3.456,6.912,0c3.456,2.322,9.774,6.346,19.01,12.096
		c6.912,3.457,12.096,6.347,15.553,8.642l3.457,1.728C443.325,664.756,442.163,665.916,439.868,667.051z M560.835,565.092
		c-4.617-12.664-21.332-16.688-50.115-12.098v50.116C551.034,590.447,567.748,577.783,560.835,565.092z"/>
</g>
<path fill-rule="evenodd" clip-rule="evenodd" fill="#B72F22" d="M159.788,798.678c3.925,4.75,7.987,9.426,12.071,14.054
	c-3.62,3.196-7.233,6.405-10.857,9.608c-3.375-3.834-6.75-7.675-10.014-11.576c-3.258-3.889-6.443-7.872-9.579-11.821
	c-5.728,4.411-11.448,8.827-17.158,13.259c-5.716,4.424-11.44,8.85-17.167,13.273c12.188,15.117,24.798,30.047,38.44,44.072
	c13.643,14.025,28.249,27.033,43.072,39.547c4.587-5.611,9.151-11.217,13.721-16.828c4.563-5.605,9.13-11.223,13.696-16.828
	c-3.881-3.224-7.776-6.488-11.59-9.846c-3.816-3.359-7.569-6.827-11.325-10.309c3.292-3.541,6.595-7.084,9.879-10.626
	c4.53,4.2,9.103,8.374,13.752,12.411c3.542,3.081,7.155,6.087,10.772,9.052c2.303,1.888,4.631,3.72,7.006,5.511
	c3.79,2.857,7.604,5.693,11.484,8.44c5.014,3.569,10.152,7.03,15.295,10.442c-2.667,4.031-5.333,8.068-8,12.093
	c-4.254-2.829-8.509-5.659-12.669-8.583c-4.156-2.918-8.261-5.938-12.315-8.943c-4.391,5.747-8.768,11.494-13.145,17.248
	c-4.369,5.762-8.756,11.509-13.146,17.262c15.688,11.448,31.737,22.611,48.541,32.627c16.808,10.016,34.281,18.796,51.843,27.048
	c2.972-6.604,5.93-13.198,8.889-19.802c2.959-6.596,5.924-13.204,8.883-19.8c-4.587-2.11-9.194-4.255-13.748-6.515
	c-4.553-2.252-9.08-4.635-13.605-7.016c2.26-4.282,4.54-8.557,6.792-12.825c5.462,2.878,10.958,5.728,16.496,8.428
	c11.48,5.592,22.229,10.185,34.213,14.644c5.774,2.15,11.631,4.166,17.479,6.134c-1.54,4.573-3.061,9.167-4.594,13.741
	c-4.845-1.629-9.683-3.264-14.467-5.008c-4.763-1.744-9.514-3.604-14.209-5.456c-2.748,6.685-5.49,13.375-8.225,20.065
	c-2.734,6.69-5.483,13.382-8.237,20.078c18.118,7.004,36.506,13.619,55.337,18.945c18.823,5.327,37.972,9.29,57.074,12.717
	c1.167-7.151,2.314-14.283,3.467-21.43c1.147-7.138,2.294-14.283,3.447-21.422c-4.974-0.861-9.982-1.736-14.962-2.734
	c-4.981-0.997-9.969-2.123-14.963-3.264c1.079-4.717,2.172-9.432,3.25-14.141c6.019,1.37,12.065,2.699,18.111,3.867
	c4.608,0.896,9.235,1.696,13.856,2.457c2.938,0.475,5.87,0.902,8.821,1.268c4.709,0.578,9.425,1.127,14.162,1.568
	c6.127,0.583,12.309,1.012,18.47,1.397c-0.297,4.817-0.589,9.649-0.882,14.468c-5.103-0.319-10.206-0.645-15.268-1.1
	c-5.056-0.447-10.124-1.012-15.132-1.589c-0.93,7.173-1.853,14.346-2.762,21.519c-0.902,7.166-1.825,14.337-2.755,21.517
	c19.312,2.077,38.786,3.712,58.349,3.983s39.085-0.862,58.418-2.49c-0.727-7.213-1.459-14.398-2.199-21.605
	c-0.732-7.187-1.473-14.386-2.205-21.579c-5.029,0.462-10.091,0.909-15.166,1.229c-5.069,0.325-10.179,0.53-15.289,0.727
	c-0.183-4.839-0.353-9.677-0.535-14.501c6.174-0.238,12.363-0.516,18.504-0.951c12.716-0.901,24.387-2.299,36.954-4.424
	c6.073-1.023,12.147-2.205,18.206-3.433c0.95,4.737,1.928,9.472,2.885,14.202c-5.008,1.012-10.016,2.016-15.023,2.891
	s-10.043,1.648-15.03,2.382c0.956,7.173,1.92,14.331,2.903,21.497c0.978,7.165,1.947,14.324,2.911,21.496
	c19.184-2.992,38.421-6.445,57.387-11.25c18.972-4.797,37.53-10.945,55.784-17.527c-2.564-6.771-5.137-13.53-7.715-20.296
	c-2.572-6.752-5.15-13.517-7.723-20.275c-4.735,1.744-9.514,3.487-14.324,5.116c-4.817,1.621-9.696,3.142-14.59,4.654
	c-1.418-4.627-2.836-9.254-4.261-13.869c5.903-1.825,11.8-3.697,17.63-5.707c4.43-1.526,8.848-3.154,13.225-4.805
	c2.782-1.051,5.537-2.143,8.271-3.311c4.363-1.853,8.727-3.738,13.049-5.721c5.598-2.564,11.169-5.279,16.693-8.026
	c2.15,4.329,4.315,8.651,6.473,12.974c-4.58,2.273-9.154,4.539-13.768,6.677c-4.607,2.146-9.276,4.187-13.904,6.195
	c2.783,6.671,5.57,13.341,8.366,20.011c2.804,6.663,5.593,13.334,8.374,20.018c17.766-7.863,35.448-16.184,52.527-25.73
	c17.08-9.547,33.42-20.289,49.346-31.371c-4.234-5.876-8.462-11.73-12.703-17.602c-4.234-5.855-8.476-11.725-12.709-17.588
	c-4.119,2.91-8.279,5.836-12.514,8.645c-4.227,2.816-8.549,5.545-12.886,8.271c-2.571-4.091-5.136-8.203-7.708-12.295
	c5.231-3.285,10.449-6.623,15.547-10.07c10.592-7.145,19.942-14.154,29.795-22.304c4.749-3.923,9.418-7.987,14.046-12.072
	c3.196,3.624,6.405,7.233,9.608,10.856c-3.833,3.373-7.674,6.752-11.569,10.018c-3.896,3.256-7.878,6.438-11.827,9.573
	c4.417,5.728,8.834,11.448,13.259,17.161c4.431,5.721,8.855,11.441,13.272,17.168c15.119-12.188,30.047-24.802,44.073-38.441
	c14.026-13.646,27.034-28.248,39.546-43.068c-5.611-4.586-11.216-9.153-16.828-13.721c-5.604-4.566-11.216-9.133-16.821-13.699
	c-3.229,3.881-6.494,7.776-9.853,11.59c-3.359,3.813-6.826,7.564-10.301,11.324c-3.549-3.29-7.091-6.596-10.633-9.879
	c4.2-4.525,8.381-9.1,12.41-13.748c3.081-3.549,6.094-7.159,9.053-10.775c1.887-2.307,3.726-4.635,5.51-7.002
	c2.856-3.794,5.693-7.607,8.447-11.489c3.563-5.015,7.031-10.151,10.443-15.294c4.024,2.666,8.063,5.333,12.086,8
	c-2.822,4.261-5.66,8.509-8.584,12.668c-2.918,4.16-5.938,8.266-8.943,12.316c5.748,4.391,11.494,8.773,17.256,13.145
	c5.754,4.369,11.502,8.753,17.256,13.143c11.453-15.682,22.609-31.729,32.625-48.537c10.022-16.809,18.797-34.281,27.048-51.836
	c-6.603-2.979-13.198-5.938-19.801-8.902c-6.596-2.952-13.198-5.918-19.794-8.876c-2.116,4.588-4.261,9.194-6.514,13.741
	c-2.26,4.561-4.635,9.086-7.023,13.611c-4.274-2.26-8.557-4.539-12.824-6.793c2.883-5.461,5.733-10.957,8.427-16.494
	c5.592-11.482,10.192-22.236,14.644-34.213c2.15-5.775,4.167-11.632,6.135-17.48c4.58,1.54,9.168,3.061,13.747,4.601
	c-1.635,4.839-3.271,9.684-5.014,14.46c-1.744,4.764-3.598,9.514-5.449,14.203c6.684,2.754,13.368,5.496,20.065,8.23
	c6.69,2.741,13.381,5.482,20.071,8.23c7.003-18.11,13.626-36.5,18.952-55.33c5.32-18.823,9.283-37.973,12.71-57.066
	c-7.152-1.174-14.284-2.32-21.429-3.475c-7.139-1.146-14.291-2.293-21.422-3.447c-0.855,4.975-1.738,9.982-2.736,14.963
	c-1.003,4.98-2.13,9.969-3.264,14.963c-4.709-1.08-9.432-2.172-14.141-3.244c1.371-6.02,2.701-12.071,3.875-18.117
	c0.889-4.608,1.689-9.236,2.449-13.857c0.482-2.938,0.908-5.869,1.27-8.82c0.576-4.709,1.126-9.426,1.573-14.162
	c0.577-6.127,1.005-12.31,1.398-18.471c4.817,0.299,9.642,0.59,14.467,0.889c-0.325,5.096-0.651,10.199-1.099,15.262
	c-0.455,5.055-1.012,10.117-1.596,15.131c7.173,0.93,14.338,1.854,21.518,2.762c7.166,0.904,14.338,1.826,21.517,2.756
	c2.077-19.313,3.712-38.787,3.983-58.35c0.278-19.563-0.854-39.085-2.49-58.425c-7.206,0.727-14.398,1.466-21.599,2.199
	c-7.192,0.739-14.392,1.479-21.585,2.212c0.461,5.028,0.909,10.09,1.229,15.158c0.325,5.077,0.529,10.179,0.727,15.296
	c-4.832,0.183-9.677,0.353-14.502,0.536c-0.237-6.175-0.516-12.364-0.949-18.503c-0.896-12.744-2.294-24.347-4.424-36.956
	c-1.025-6.073-2.213-12.146-3.427-18.199c4.735-0.957,9.466-1.934,14.202-2.891c1.011,5.008,2.008,10.015,2.891,15.024
	c0.875,5.007,1.643,10.042,2.381,15.03c7.166-0.958,14.332-1.927,21.49-2.904c7.166-0.977,14.332-1.948,21.504-2.911
	c-2.992-19.184-6.46-38.42-11.258-57.393c-4.797-18.958-10.945-37.531-17.527-55.778c-6.778,2.565-13.529,5.137-20.295,7.708
	c-6.752,2.579-13.518,5.157-20.276,7.729c1.751,4.736,3.488,9.507,5.117,14.317c1.628,4.817,3.142,9.704,4.654,14.589
	c-4.627,1.425-9.255,2.843-13.87,4.262c-1.824-5.89-3.697-11.8-5.699-17.624c-1.533-4.43-3.162-8.84-4.811-13.224
	c-1.052-2.782-2.145-5.538-3.313-8.272c-1.852-4.369-3.738-8.726-5.72-13.055c-2.565-5.591-5.279-11.163-8.021-16.686
	c4.322-2.15,8.645-4.322,12.967-6.473c2.274,4.58,4.54,9.16,6.678,13.768c2.145,4.607,4.187,9.276,6.195,13.911
	c6.677-2.789,13.348-5.578,20.011-8.374c6.664-2.803,13.333-5.591,20.018-8.374c-7.864-17.765-16.184-35.449-25.731-52.527
	c-9.541-17.08-20.282-33.42-31.363-49.346c-5.883,4.234-11.738,8.462-17.608,12.703c-5.856,4.234-11.726,8.475-17.589,12.709
	c2.911,4.119,5.836,8.279,8.646,12.513c2.822,4.234,5.551,8.55,8.278,12.886c-4.098,2.571-8.211,5.136-12.296,7.708
	c-3.29-5.225-6.629-10.443-10.069-15.546c-7.139-10.572-14.182-19.97-22.311-29.796c-3.923-4.742-7.987-9.412-12.072-14.045
	c3.623-3.197,7.24-6.413,10.856-9.609c3.38,3.834,6.752,7.674,10.016,11.569c3.258,3.895,6.447,7.878,9.581,11.828
	c5.721-4.417,11.447-8.828,17.162-13.259c5.713-4.431,11.434-8.855,17.16-13.273c-12.188-15.118-24.801-30.047-38.44-44.073
	s-28.249-27.034-43.068-39.546c-4.587,5.605-9.153,11.21-13.72,16.829c-4.566,5.598-9.135,11.216-13.701,16.822
	c3.882,3.229,7.777,6.493,11.59,9.846c3.813,3.366,7.573,6.826,11.325,10.307c-3.29,3.549-6.595,7.091-9.872,10.626
	c-4.533-4.194-9.107-8.367-13.756-12.411c-3.541-3.073-7.158-6.086-10.775-9.051c-2.299-1.888-4.635-3.719-7.002-5.511
	c-3.794-2.85-7.607-5.687-11.481-8.441c-5.021-3.563-10.158-7.03-15.295-10.442c2.667-4.025,5.327-8.063,8-12.086
	c4.255,2.83,8.503,5.659,12.662,8.583c4.159,2.917,8.265,5.938,12.315,8.944c4.391-5.747,8.774-11.495,13.145-17.255
	c4.369-5.755,8.753-11.502,13.15-17.256c-15.688-11.454-31.736-22.609-48.545-32.625c-16.808-10.02-34.273-18.8-51.835-27.051
	c-2.979,6.606-5.938,13.198-8.896,19.803c-2.958,6.596-5.923,13.202-8.875,19.801c4.58,2.111,9.188,4.255,13.741,6.514
	c4.56,2.252,9.078,4.634,13.604,7.016c-2.26,4.282-4.533,8.557-6.792,12.825c-5.463-2.884-10.959-5.733-16.496-8.427
	c-11.481-5.599-22.23-10.186-34.213-14.65c-5.768-2.144-11.631-4.16-17.48-6.127c1.541-4.577,3.067-9.168,4.602-13.748
	c4.838,1.631,9.684,3.271,14.459,5.014c4.771,1.742,9.515,3.601,14.21,5.453c2.748-6.688,5.496-13.375,8.231-20.065
	c2.734-6.69,5.476-13.381,8.23-20.075c-18.117-7.003-36.507-13.623-55.337-18.949c-18.823-5.323-37.972-9.29-57.067-12.713
	c-1.167,7.153-2.32,14.284-3.467,21.433c-1.154,7.134-2.301,14.28-3.455,21.418c4.975,0.858,9.982,1.737,14.963,2.734
	c4.98,1.001,9.968,2.127,14.963,3.265c-1.079,4.712-2.165,9.435-3.244,14.141c-6.019-1.371-12.071-2.701-18.117-3.872
	c-4.602-0.892-9.235-1.693-13.855-2.453c-2.939-0.481-5.871-0.908-8.822-1.269c-4.702-0.577-9.425-1.126-14.162-1.574
	c-6.127-0.577-12.309-1.008-18.463-1.395c0.291-4.818,0.583-9.646,0.881-14.464c5.096,0.319,10.199,0.645,15.261,1.096
	c5.056,0.448,10.118,1.011,15.139,1.588c0.923-7.169,1.846-14.342,2.756-21.514c0.908-7.173,1.832-14.341,2.754-21.521
	c-19.312-2.077-38.786-3.712-58.35-3.983c-19.563-0.272-39.084,0.859-58.417,2.494c0.726,7.209,1.458,14.399,2.198,21.598
	c0.733,7.193,1.472,14.392,2.205,21.585c5.028-0.461,10.09-0.91,15.166-1.231c5.069-0.322,10.179-0.526,15.295-0.723
	c0.176,4.834,0.346,9.676,0.529,14.504c-6.174,0.234-12.363,0.512-18.504,0.944c-12.737,0.899-24.36,2.296-36.955,4.427
	c-6.073,1.022-12.146,2.206-18.199,3.427c-0.957-4.733-1.934-9.469-2.891-14.202c5.007-1.011,10.016-2.016,15.03-2.891
	c5.001-0.875,10.036-1.642,15.024-2.381c-0.958-7.166-1.921-14.328-2.905-21.494c-0.971-7.163-1.94-14.328-2.904-21.5
	c-19.19,2.993-38.421,6.453-57.393,11.254c-18.966,4.804-37.532,10.945-55.785,17.53c2.564,6.775,5.136,13.527,7.715,20.292
	c2.571,6.755,5.15,13.521,7.721,20.276c4.737-1.744,9.508-3.488,14.325-5.114c4.818-1.625,9.696-3.141,14.589-4.655
	c1.425,4.621,2.836,9.256,4.262,13.87c-5.904,1.822-11.801,3.698-17.623,5.707c-4.438,1.526-8.848,3.148-13.231,4.797
	c-2.782,1.058-5.537,2.157-8.271,3.312c-4.364,1.859-8.727,3.746-13.049,5.727c-5.598,2.558-11.169,5.278-16.692,8.02
	c-2.158-4.322-4.316-8.644-6.467-12.967c4.573-2.273,9.154-4.54,13.761-6.677c4.607-2.145,9.276-4.19,13.91-6.196
	c-2.788-6.677-5.57-13.34-8.374-20.011c-2.795-6.663-5.584-13.333-8.373-20.018c-17.758,7.865-35.448,16.184-52.527,25.728
	c-17.073,9.544-33.42,20.292-49.339,31.373c4.227,5.876,8.462,11.732,12.699,17.603c4.234,5.855,8.472,11.725,12.707,17.582
	c4.119-2.904,8.285-5.83,12.512-8.638c4.234-2.823,8.55-5.551,12.886-8.272c2.572,4.092,5.137,8.204,7.709,12.29
	c-5.226,3.291-10.443,6.629-15.546,10.069c-10.593,7.153-19.936,14.155-29.792,22.312c-4.75,3.922-9.418,7.986-14.049,12.071
	c-3.196-3.623-6.409-7.24-9.605-10.857c3.833-3.379,7.67-6.751,11.573-10.015c3.891-3.258,7.871-6.44,11.824-9.581
	c-4.414-5.721-8.835-11.441-13.263-17.162c-4.431-5.713-8.849-11.433-13.273-17.161c-15.118,12.18-30.046,24.801-44.073,38.44
	c-14.025,13.639-27.034,28.242-39.542,43.068c5.608,4.587,11.212,9.147,16.825,13.721c5.602,4.566,11.216,9.133,16.825,13.7
	c3.23-3.881,6.494-7.777,9.845-11.591c3.359-3.819,6.83-7.572,10.308-11.325c3.545,3.291,7.087,6.589,10.626,9.879
	c-4.197,4.527-8.374,9.1-12.411,13.749c-3.074,3.542-6.083,7.158-9.055,10.775c-1.88,2.3-3.719,4.628-5.504,7.01
	c-2.856,3.787-5.69,7.601-8.444,11.475c-3.566,5.021-7.027,10.158-10.443,15.295c-4.024-2.667-8.064-5.327-12.085-7.993
	c2.827-4.262,5.66-8.509,8.581-12.669c2.918-4.159,5.938-8.265,8.947-12.316c-5.748-4.39-11.499-8.773-17.256-13.144
	c-5.755-4.37-11.505-8.753-17.259-13.15c-11.451,15.688-22.61,31.736-32.626,48.544c-10.019,16.808-18.796,34.281-27.047,51.835
	c6.603,2.979,13.199,5.938,19.804,8.896c6.592,2.959,13.202,5.924,19.794,8.877c2.114-4.581,4.258-9.188,6.521-13.742
	c2.25-4.553,4.631-9.079,7.02-13.605c4.275,2.259,8.55,4.533,12.818,6.792c-2.881,5.462-5.731,10.958-8.424,16.496
	c-5.584,11.461-10.203,22.263-14.65,34.213c-2.148,5.774-4.161,11.624-6.128,17.48c-4.581-1.541-9.167-3.068-13.748-4.601
	c1.632-4.838,3.268-9.683,5.011-14.46c1.744-4.77,3.6-9.513,5.453-14.202c-6.684-2.754-13.372-5.503-20.064-8.238
	c-6.695-2.734-13.382-5.476-20.076-8.224c-7.003,18.111-13.626,36.5-18.95,55.323c-5.327,18.83-9.286,37.979-12.709,57.074
	c7.149,1.167,14.284,2.32,21.433,3.468c7.131,1.154,14.281,2.301,21.419,3.454c0.854-4.974,1.733-9.981,2.731-14.962
	c1.004-4.987,2.127-9.968,3.264-14.962c4.715,1.079,9.438,2.172,14.141,3.244c-1.371,6.018-2.697,12.064-3.872,18.111
	c-0.892,4.607-1.692,9.249-2.453,13.863c-0.482,2.938-0.909,5.869-1.269,8.82c-0.577,4.703-1.12,9.426-1.571,14.162
	c-0.577,6.127-1.007,12.309-1.394,18.47c-4.821-0.305-9.649-0.59-14.468-0.889c0.323-5.103,0.646-10.199,1.1-15.261
	c0.446-5.055,1.008-10.124,1.589-15.139c-7.173-0.923-14.342-1.845-21.514-2.755c-7.169-0.909-14.341-1.825-21.524-2.754
	c-2.073,19.311-3.708,38.787-3.98,58.349c-0.275,19.563,0.858,39.085,2.494,58.417c7.206-0.719,14.395-1.459,21.595-2.198
	c7.193-0.733,14.392-1.473,21.585-2.212c-0.458-5.021-0.909-10.084-1.228-15.159c-0.326-5.069-0.53-10.179-0.723-15.295
	c4.831-0.177,9.673-0.347,14.497-0.528c0.238,6.174,0.519,12.362,0.95,18.504c0.895,12.742,2.29,24.34,4.424,36.954
	c1.024,6.073,2.209,12.146,3.43,18.198c-4.737,0.958-9.473,1.935-14.206,2.892c-1.007-5.009-2.009-10.017-2.89-15.03
	c-0.876-5.001-1.636-10.036-2.379-15.03c-7.166,0.964-14.331,1.927-21.493,2.903c-7.162,0.979-14.328,1.948-21.5,2.912
	c2.993,19.189,6.45,38.42,11.253,57.393c4.802,18.966,10.946,37.531,17.528,55.784c6.778-2.564,13.53-5.136,20.295-7.715
	c6.752-2.571,13.517-5.151,20.272-7.722c-1.744-4.736-3.484-9.514-5.109-14.325c-1.625-4.817-3.146-9.696-4.66-14.589
	c4.625-1.418,9.256-2.844,13.874-4.262c1.822,5.897,3.694,11.801,5.703,17.623c1.53,4.438,3.152,8.849,4.804,13.225
	c1.052,2.789,2.148,5.545,3.312,8.272c1.852,4.37,3.739,8.732,5.721,13.056c2.565,5.598,5.278,11.168,8.024,16.691
	c-4.319,2.151-8.648,4.316-12.971,6.467c-2.273-4.572-4.54-9.152-6.681-13.761c-2.141-4.607-4.183-9.276-6.191-13.911
	c-6.674,2.789-13.344,5.578-20.011,8.375c-6.663,2.801-13.333,5.584-20.014,8.373c7.857,17.764,16.18,35.447,25.724,52.527
	c9.548,17.072,20.293,33.412,31.371,49.338c5.879-4.228,11.742-8.462,17.605-12.703c5.859-4.227,11.729-8.469,17.588-12.702
	c-2.911-4.118-5.832-8.285-8.644-12.513c-2.82-4.234-5.548-8.557-8.272-12.886c4.095-2.571,8.203-5.137,12.292-7.708
	c3.288,5.225,6.623,10.443,10.067,15.545C144.595,779.428,151.689,788.893,159.788,798.678L159.788,798.678z M754.717,878.518
	c-7.016,4.574-14.188,8.924-21.422,13.198c3.658,6.256,7.309,12.526,10.966,18.79c3.651,6.262,7.288,12.531,10.945,18.795
	c9.072-5.374,18.022-10.932,26.831-16.652c2.699,4.005,5.394,8.021,8.108,12.025c-11.218,7.891-22.794,14.826-34.655,21.455
	c-11.847,6.617-23.838,12.865-36.275,18.261c-2.022-4.384-4.037-8.78-6.039-13.163c9.479-4.547,18.884-9.277,28.221-14.196
	c-3.453-6.372-6.9-12.757-10.341-19.142c-3.44-6.365-6.88-12.751-10.327-19.123c-7.418,3.929-14.868,7.797-22.42,11.4
	c-6.154,2.944-12.377,5.706-18.619,8.408c-3.135,1.363-6.325,2.618-9.535,3.793c-6.141,2.252-12.315,4.451-18.572,6.486
	c-7.959,2.598-16.014,4.939-24.109,7.199c1.921,6.99,3.828,13.984,5.734,20.988c1.906,6.996,3.8,13.992,5.707,20.988
	c10.151-2.844,20.234-5.896,30.223-9.134c1.574,4.554,3.135,9.134,4.716,13.714c-12.865,4.709-25.847,8.414-39.017,11.746
	c-13.158,3.324-26.355,6.256-39.771,8.252c-0.815-4.764-1.63-9.527-2.43-14.285c10.334-1.934,20.649-4.064,30.936-6.405
	c-1.683-7.051-3.358-14.107-5.028-21.157c-1.669-7.051-3.345-14.101-5.028-21.151c-8.183,1.873-16.388,3.691-24.604,5.212
	c-16.691,3.101-33.025,5.055-49.969,5.957c-8.366,0.449-16.747,0.625-25.154,0.713c0.04,7.254,0.067,14.501,0.102,21.755
	c0.034,7.253,0.048,14.501,0.082,21.755c10.551-0.123,21.076-0.461,31.56-1.005c0.346,4.812,0.665,9.636,1.011,14.468
	c-13.653,1.215-27.149,1.438-40.734,1.248c-13.571-0.19-27.075-0.773-40.551-2.32c0.448-4.811,0.896-9.623,1.351-14.427
	c10.483,0.808,21.001,1.419,31.546,1.819c0.197-7.24,0.401-14.494,0.611-21.742c0.211-7.24,0.414-14.486,0.618-21.727
	c-8.387-0.306-16.774-0.68-25.113-1.338c-6.806-0.529-13.571-1.248-20.337-2.028c-3.393-0.394-6.779-0.896-10.151-1.479
	c-6.439-1.119-12.886-2.307-19.319-3.67c-8.197-1.732-16.34-3.726-24.482-5.822c-1.833,7.016-3.685,14.025-5.531,21.041
	c-1.846,7.017-3.711,14.02-5.557,21.029c10.219,2.619,20.479,5.014,30.752,7.199c-0.916,4.736-1.853,9.486-2.776,14.236
	c-13.503-2.354-26.599-5.633-39.668-9.33c-13.056-3.697-25.948-7.764-38.563-12.743c1.675-4.533,3.352-9.065,5.035-13.579
	c9.92,3.488,19.916,6.8,29.992,9.914c2.07-6.941,4.146-13.89,6.223-20.838c2.076-6.936,4.159-13.884,6.222-20.825
	c-8.021-2.47-16.034-5.001-23.913-7.79c-16.102-5.701-31.051-12.105-46.251-19.828c-7.47-3.793-14.819-7.83-22.141-11.955
	c-3.59,6.303-7.193,12.594-10.79,18.891c-3.596,6.29-7.206,12.58-10.81,18.877c9.195,5.171,18.485,10.139,27.835,14.908
	c-2.11,4.336-4.241,8.68-6.359,13.035c-12.43-5.768-24.23-12.33-35.902-19.284c-11.651-6.948-23.058-14.209-33.952-22.284
	c2.789-3.949,5.581-7.885,8.381-11.82c8.677,5.938,17.482,11.726,26.406,17.351c3.793-6.175,7.601-12.35,11.407-18.524
	c3.8-6.162,7.607-12.337,11.393-18.512c-7.112-4.458-14.188-8.978-21.083-13.713c-5.625-3.855-11.128-7.865-16.584-11.924
	c-2.752-2.035-5.428-4.165-8.061-6.357c-5.018-4.193-10.006-8.441-14.895-12.838c-6.235-5.598-12.292-11.4-18.291-17.277
	c-5.1,5.158-10.205,10.301-15.312,15.452c-5.106,5.149-10.218,10.286-15.324,15.437c7.542,7.377,15.23,14.576,23.026,21.605
	c-3.163,3.65-6.345,7.288-9.521,10.945c-10.514-8.787-20.21-18.179-29.679-27.923c-9.463-9.73-18.6-19.692-27.035-30.312
	c3.719-3.087,7.434-6.168,11.156-9.241c6.844,7.979,13.85,15.845,21.019,23.586c5.259-4.979,10.534-9.961,15.807-14.935
	c5.266-4.975,10.538-9.947,15.801-14.936c-5.714-6.147-11.384-12.343-16.815-18.701c-11.009-12.873-20.902-26.091-30.142-40.293
	c-4.57-7.023-8.917-14.188-13.194-21.422c-6.26,3.664-12.527,7.309-18.79,10.965c-6.263,3.651-12.533,7.288-18.799,10.939
	c5.377,9.078,10.938,18.021,16.648,26.837c-3.993,2.7-8.011,5.395-12.025,8.101c-7.881-11.209-14.82-22.792-21.445-34.646
	c-6.62-11.848-12.866-23.838-18.264-36.275c4.39-2.022,8.774-4.038,13.164-6.047c4.547,9.48,9.28,18.891,14.2,28.229
	c6.368-3.454,12.753-6.901,19.135-10.342c6.372-3.439,12.754-6.881,19.126-10.334c-3.929-7.41-7.8-14.867-11.403-22.413
	c-2.942-6.154-5.704-12.384-8.401-18.62c-1.363-3.141-2.619-6.323-3.799-9.533c-2.253-6.141-4.445-12.316-6.484-18.566
	c-2.598-7.965-4.943-16.02-7.199-24.115c-6.994,1.92-13.989,3.82-20.988,5.727c-6.996,1.907-13.992,3.801-20.992,5.707
	c2.846,10.158,5.9,20.241,9.141,30.23c-4.561,1.574-9.141,3.141-13.717,4.715c-4.709-12.865-8.414-25.853-11.747-39.017
	c-3.328-13.164-6.259-26.355-8.254-39.771c4.763-0.814,9.527-1.629,14.287-2.43c1.934,10.336,4.068,20.648,6.409,30.937
	c7.043-1.683,14.101-3.358,21.154-5.035c7.047-1.669,14.104-3.339,21.151-5.028c-1.873-8.176-3.685-16.381-5.214-24.605
	c-3.115-16.786-5.042-32.938-5.954-49.962c-0.449-8.366-0.625-16.747-0.717-25.153c-7.25,0.039-14.501,0.074-21.751,0.1
	c-7.25,0.035-14.501,0.049-21.754,0.082c0.122,10.546,0.462,21.076,1.007,31.561c-4.814,0.34-9.639,0.665-14.467,1.012
	c-1.221-13.652-1.441-27.15-1.251-40.741c0.19-13.564,0.777-27.068,2.321-40.544c4.811,0.44,9.619,0.896,14.422,1.35
	c-0.8,10.484-1.408,20.995-1.814,31.54c7.243,0.197,14.494,0.408,21.741,0.618c7.236,0.204,14.487,0.414,21.727,0.618
	c0.313-8.388,0.682-16.781,1.334-25.121c0.532-6.799,1.251-13.571,2.032-20.323c0.39-3.399,0.899-6.786,1.479-10.158
	c1.124-6.446,2.308-12.893,3.671-19.326c1.731-8.19,3.726-16.34,5.819-24.475c-7.013-1.832-14.026-3.685-21.042-5.53
	c-7.01-1.846-14.016-3.705-21.029-5.558c-2.612,10.219-5.01,20.479-7.196,30.745c-4.74-0.916-9.486-1.845-14.239-2.768
	c2.358-13.503,5.639-26.6,9.333-39.669c3.698-13.056,7.76-25.955,12.743-38.569c4.53,1.683,9.059,3.359,13.582,5.042
	c-3.494,9.92-6.799,19.916-9.917,30c6.942,2.063,13.89,4.139,20.838,6.216c6.935,2.076,13.884,4.158,20.828,6.222
	c2.471-8.027,4.998-16.034,7.788-23.919c5.666-16,12.139-31.118,19.827-46.244c3.796-7.471,7.831-14.82,11.957-22.149
	c-6.3-3.582-12.594-7.186-18.888-10.782c-6.298-3.602-12.583-7.213-18.877-10.81c-5.174,9.195-10.138,18.485-14.912,27.834
	c-4.339-2.109-8.683-4.24-13.035-6.358c5.774-12.431,12.33-24.231,19.284-35.903c6.949-11.65,14.209-23.057,22.284-33.955
	c3.946,2.788,7.889,5.584,11.817,8.38c-5.938,8.679-11.722,17.48-17.344,26.41c6.171,3.793,12.349,7.593,18.521,11.399
	c6.165,3.8,12.336,7.607,18.512,11.4c4.457-7.105,8.977-14.188,13.71-21.083c3.861-5.625,7.868-11.128,11.926-16.591
	c2.035-2.748,4.166-5.428,6.358-8.054c4.193-5.021,8.445-10.009,12.838-14.895c5.598-6.236,11.4-12.289,17.279-18.294
	c-5.157-5.096-10.304-10.205-15.455-15.309c-5.149-5.103-10.287-10.226-15.437-15.329c-7.373,7.546-14.576,15.227-21.605,23.031
	c-3.644-3.162-7.292-6.345-10.946-9.521c8.788-10.518,18.179-20.214,27.92-29.68c9.727-9.466,19.695-18.599,30.315-27.034
	c3.083,3.719,6.172,7.437,9.246,11.156c-7.987,6.839-15.848,13.849-23.587,21.015c4.977,5.259,9.958,10.538,14.931,15.804
	c4.975,5.273,9.952,10.544,14.932,15.804c6.148-5.707,12.347-11.386,18.705-16.814c12.981-11.095,26.002-20.838,40.287-30.142
	c7.03-4.574,14.195-8.916,21.436-13.191c-3.671-6.263-7.315-12.526-10.972-18.789c-3.651-6.263-7.288-12.534-10.938-18.804
	c-9.079,5.381-18.022,10.938-26.838,16.652c-2.7-3.997-5.394-8.014-8.104-12.025c11.212-7.884,22.796-14.819,34.65-21.449
	c11.848-6.616,23.838-12.866,36.276-18.26c2.021,4.384,4.037,8.777,6.045,13.165c-9.479,4.546-18.891,9.275-28.228,14.195
	c3.454,6.372,6.901,12.75,10.341,19.136c3.44,6.372,6.88,12.757,10.334,19.129c7.41-3.929,14.869-7.804,22.414-11.407
	c6.154-2.938,12.384-5.7,18.625-8.401c3.135-1.364,6.318-2.619,9.528-3.8c6.141-2.252,12.315-4.444,18.565-6.48
	c7.966-2.599,16.028-4.947,24.116-7.2c-1.92-6.997-3.82-13.992-5.727-20.988c-1.914-6.996-3.801-13.995-5.708-20.991
	c-10.158,2.847-20.241,5.899-30.229,9.137c-1.574-4.56-3.135-9.137-4.716-13.717c12.866-4.706,25.853-8.411,39.024-11.742
	c13.15-3.328,26.349-6.263,39.763-8.252c0.815,4.76,1.629,9.521,2.43,14.278c-10.334,1.937-20.649,4.071-30.936,6.413
	c1.683,7.043,3.359,14.1,5.035,21.157c1.669,7.046,3.338,14.101,5.027,21.151c8.184-1.877,16.381-3.688,24.605-5.215
	c16.638-3.094,33.06-5.055,49.963-5.957c8.366-0.444,16.747-0.625,25.154-0.713c-0.041-7.254-0.068-14.501-0.102-21.754
	c-0.027-7.251-0.048-14.5-0.082-21.752c-10.544,0.119-21.069,0.462-31.56,1.004c-0.339-4.811-0.665-9.639-1.01-14.467
	c13.652-1.222,27.148-1.442,40.733-1.249c13.571,0.19,27.075,0.774,40.551,2.321c-0.441,4.811-0.895,9.619-1.35,14.423
	c-10.484-0.804-20.995-1.415-31.547-1.815c-0.19,7.24-0.4,14.487-0.611,21.741c-0.204,7.233-0.414,14.487-0.61,21.727
	c8.38,0.306,16.774,0.679,25.113,1.333c6.799,0.532,13.571,1.252,20.324,2.033c3.398,0.39,6.785,0.896,10.158,1.479
	c6.439,1.12,12.886,2.308,19.318,3.668c8.197,1.733,16.347,3.729,24.482,5.818c1.832-7.013,3.685-14.026,5.531-21.039
	c1.844-7.013,3.711-14.016,5.557-21.032c-10.22-2.612-20.479-5.007-30.746-7.199c0.916-4.733,1.846-9.483,2.77-14.237
	c13.502,2.355,26.599,5.639,39.668,9.337c13.056,3.698,25.955,7.756,38.563,12.737c-1.669,4.536-3.352,9.062-5.035,13.584
	c-9.921-3.491-19.916-6.798-29.992-9.917c-2.068,6.945-4.146,13.894-6.223,20.839c-2.076,6.938-4.159,13.886-6.223,20.835
	c8.028,2.464,16.035,4.994,23.92,7.783c16.096,5.693,31.051,12.105,46.251,19.821c7.465,3.799,14.813,7.837,22.135,11.963
	c3.589-6.304,7.192-12.594,10.789-18.891c3.596-6.297,7.213-12.581,10.81-18.878c-9.195-5.171-18.484-10.138-27.842-14.912
	c2.117-4.336,4.248-8.679,6.365-13.032c12.431,5.769,24.231,12.327,35.902,19.285c11.658,6.949,23.058,14.21,33.955,22.285
	c-2.789,3.949-5.584,7.884-8.38,11.813c-8.679-5.938-17.479-11.719-26.409-17.344c-3.793,6.174-7.594,12.349-11.4,18.523
	c-3.8,6.162-7.606,12.337-11.399,18.513c7.104,4.457,14.188,8.97,21.083,13.706c5.625,3.868,11.129,7.872,16.591,11.929
	c2.747,2.029,5.429,4.167,8.054,6.358c5.021,4.194,10.009,8.442,14.895,12.839c6.236,5.598,12.297,11.399,18.295,17.276
	c5.096-5.157,10.205-10.308,15.308-15.458c5.11-5.15,10.22-10.281,15.329-15.437c-7.546-7.369-15.234-14.576-23.031-21.599
	c3.162-3.65,6.346-7.294,9.521-10.946c10.519,8.789,20.215,18.179,29.681,27.917c9.466,9.731,18.6,19.691,27.033,30.318
	c-3.718,3.088-7.436,6.168-11.154,9.242c-6.84-7.986-13.851-15.844-21.016-23.586c-5.259,4.98-10.531,9.961-15.803,14.935
	c-5.273,4.974-10.546,9.948-15.805,14.936c5.707,6.148,11.38,12.343,16.814,18.702c11.026,12.899,20.881,26.07,30.143,40.292
	c4.566,7.017,8.916,14.189,13.197,21.422c6.256-3.657,12.52-7.308,18.783-10.966c6.263-3.65,12.539-7.294,18.804-10.945
	c-5.383-9.072-10.938-18.022-16.653-26.83c3.997-2.701,8.014-5.395,12.024-8.108c7.878,11.216,14.82,22.792,21.45,34.653
	c6.615,11.84,12.865,23.838,18.267,36.275c-4.391,2.023-8.78,4.038-13.171,6.039c-4.547-9.479-9.275-18.891-14.203-28.221
	c-6.365,3.455-12.75,6.895-19.128,10.342c-6.372,3.44-12.757,6.88-19.13,10.328c3.93,7.417,7.805,14.874,11.408,22.419
	c2.938,6.155,5.699,12.377,8.4,18.62c1.363,3.135,2.619,6.325,3.799,9.534c2.246,6.141,4.445,12.316,6.48,18.566
	c2.6,7.967,4.94,16.021,7.2,24.109c6.996-1.913,13.992-3.819,20.987-5.726c6.996-1.907,14-3.801,20.994-5.7
	c-2.85-10.158-5.902-20.242-9.139-30.23c4.559-1.575,9.133-3.142,13.713-4.716c4.709,12.865,8.415,25.854,11.746,39.017
	c3.332,13.157,6.264,26.355,8.258,39.77c-4.763,0.815-9.526,1.629-14.283,2.43c-1.935-10.335-4.071-20.649-6.413-30.936
	c-7.043,1.683-14.1,3.359-21.157,5.028c-7.044,1.677-14.1,3.345-21.15,5.029c1.873,8.184,3.691,16.387,5.211,24.611
	c3.122,16.78,5.049,32.937,5.958,49.962c0.448,8.367,0.631,16.748,0.713,25.155c7.254-0.041,14.507-0.068,21.762-0.109
	c7.246-0.027,14.493-0.041,21.747-0.075c-0.121-10.551-0.461-21.076-1.004-31.56c4.811-0.346,9.636-0.665,14.467-1.011
	c1.222,13.653,1.438,27.149,1.249,40.734c-0.19,13.571-0.773,27.075-2.321,40.551c-4.811-0.448-9.622-0.896-14.42-1.351
	c0.801-10.484,1.406-21.002,1.813-31.546c-7.24-0.196-14.487-0.401-21.742-0.61c-7.232-0.211-14.486-0.421-21.727-0.618
	c-0.305,8.388-0.679,16.78-1.33,25.113c-0.528,6.806-1.255,13.578-2.036,20.33c-0.386,3.399-0.896,6.786-1.479,10.157
	c-1.12,6.44-2.308,12.887-3.664,19.319c-1.737,8.196-3.732,16.347-5.821,24.481c7.015,1.834,14.025,3.686,21.034,5.531
	c7.017,1.846,14.019,3.713,21.035,5.558c2.613-10.226,5.009-20.479,7.2-30.745c4.736,0.916,9.479,1.846,14.236,2.768
	c-2.355,13.504-5.639,26.594-9.344,39.67c-3.691,13.055-7.75,25.947-12.73,38.562c-4.532-1.675-9.065-3.353-13.585-5.034
	c3.495-9.92,6.8-19.916,9.915-29.992c-6.943-2.07-13.891-4.146-20.84-6.223c-6.935-2.084-13.883-4.16-20.832-6.223
	c-2.469,8.027-4.994,16.027-7.783,23.912c-5.659,15.994-12.139,31.126-19.827,46.252c-3.794,7.471-7.831,14.82-11.957,22.141
	c6.305,3.59,12.595,7.192,18.892,10.789c6.291,3.596,12.58,7.207,18.878,10.811c5.171-9.195,10.138-18.484,14.915-27.836
	c4.336,2.111,8.678,4.242,13.028,6.359c-5.769,12.431-12.329,24.23-19.284,35.902c-6.949,11.65-14.21,23.058-22.285,33.948
	c-3.941-2.789-7.885-5.578-11.813-8.373c5.938-8.679,11.72-17.487,17.344-26.411c-6.175-3.793-12.349-7.6-18.524-11.405
	c-6.161-3.794-12.336-7.607-18.512-11.394c-4.457,7.111-8.977,14.189-13.706,21.084c-3.86,5.624-7.871,11.128-11.929,16.584
	c-2.036,2.754-4.167,5.428-6.352,8.054c-4.193,5.021-8.449,10.009-12.839,14.901c-5.605,6.229-11.399,12.288-17.282,18.294
	c5.156,5.097,10.301,10.206,15.45,15.308c5.15,5.104,10.287,10.22,15.438,15.329c7.375-7.545,14.583-15.227,21.612-23.03
	c3.644,3.162,7.287,6.345,10.945,9.521c-8.795,10.51-18.186,20.213-27.924,29.679c-9.73,9.46-19.691,18.601-30.311,27.034
	c-3.094-3.719-6.176-7.437-9.248-11.154c7.985-6.848,15.844-13.851,23.586-21.016c-4.98-5.26-9.961-10.538-14.936-15.811
	c-4.973-5.266-9.947-10.539-14.928-15.805c-6.154,5.715-12.35,11.387-18.709,16.822
	C782.037,859.477,769.008,869.222,754.717,878.518L754.717,878.518z"/>
</svg>
